<mxfile host="Electron" agent="Mozilla/5.0 (Windows NT 10.0; Win64; x64) AppleWebKit/537.36 (KHTML, like Gecko) draw.io/26.1.1 Chrome/132.0.6834.210 Electron/34.3.3 Safari/537.36" version="26.1.1">
  <diagram name="Page-1" id="WO6y1tCaPw_diWejYL_s">
    <mxGraphModel dx="2074" dy="1196" grid="1" gridSize="10" guides="1" tooltips="1" connect="1" arrows="1" fold="1" page="1" pageScale="1" pageWidth="850" pageHeight="1100" math="0" shadow="0">
      <root>
        <mxCell id="0" />
        <mxCell id="1" parent="0" />
        <mxCell id="ZkSdNw1eY8WDO75L0njx-2" style="edgeStyle=orthogonalEdgeStyle;rounded=0;orthogonalLoop=1;jettySize=auto;html=1;exitX=0.5;exitY=1;exitDx=0;exitDy=0;" edge="1" parent="1" source="_IOrh9b2by9tf-pV0UFM-1">
          <mxGeometry relative="1" as="geometry">
            <mxPoint x="390" y="150" as="targetPoint" />
          </mxGeometry>
        </mxCell>
        <mxCell id="_IOrh9b2by9tf-pV0UFM-1" value="Start" style="ellipse;whiteSpace=wrap;html=1;" parent="1" vertex="1">
          <mxGeometry x="310" y="20" width="160" height="110" as="geometry" />
        </mxCell>
        <mxCell id="ZkSdNw1eY8WDO75L0njx-3" style="edgeStyle=orthogonalEdgeStyle;rounded=0;orthogonalLoop=1;jettySize=auto;html=1;exitX=0.5;exitY=1;exitDx=0;exitDy=0;" edge="1" parent="1" source="_IOrh9b2by9tf-pV0UFM-2">
          <mxGeometry relative="1" as="geometry">
            <mxPoint x="390" y="280" as="targetPoint" />
          </mxGeometry>
        </mxCell>
        <mxCell id="_IOrh9b2by9tf-pV0UFM-2" value="Input monthlyRent" style="shape=parallelogram;perimeter=parallelogramPerimeter;whiteSpace=wrap;html=1;fixedSize=1;" parent="1" vertex="1">
          <mxGeometry x="295" y="160" width="190" height="100" as="geometry" />
        </mxCell>
        <mxCell id="ZkSdNw1eY8WDO75L0njx-4" style="edgeStyle=orthogonalEdgeStyle;rounded=0;orthogonalLoop=1;jettySize=auto;html=1;exitX=0.5;exitY=1;exitDx=0;exitDy=0;" edge="1" parent="1" source="_IOrh9b2by9tf-pV0UFM-4">
          <mxGeometry relative="1" as="geometry">
            <mxPoint x="385" y="420" as="targetPoint" />
          </mxGeometry>
        </mxCell>
        <mxCell id="_IOrh9b2by9tf-pV0UFM-4" value="daysInMonth = 30" style="rounded=0;whiteSpace=wrap;html=1;" parent="1" vertex="1">
          <mxGeometry x="290" y="290" width="190" height="110" as="geometry" />
        </mxCell>
        <mxCell id="ZkSdNw1eY8WDO75L0njx-5" style="edgeStyle=orthogonalEdgeStyle;rounded=0;orthogonalLoop=1;jettySize=auto;html=1;exitX=0.5;exitY=1;exitDx=0;exitDy=0;" edge="1" parent="1" source="_IOrh9b2by9tf-pV0UFM-5">
          <mxGeometry relative="1" as="geometry">
            <mxPoint x="385" y="540" as="targetPoint" />
          </mxGeometry>
        </mxCell>
        <mxCell id="_IOrh9b2by9tf-pV0UFM-5" value="dailyRentCost = MonthlyRent / daysInMonth" style="rounded=0;whiteSpace=wrap;html=1;" parent="1" vertex="1">
          <mxGeometry x="290" y="430" width="190" height="90" as="geometry" />
        </mxCell>
        <mxCell id="_IOrh9b2by9tf-pV0UFM-6" style="edgeStyle=orthogonalEdgeStyle;rounded=0;orthogonalLoop=1;jettySize=auto;html=1;exitX=1;exitY=1;exitDx=0;exitDy=0;entryX=0.995;entryY=0.864;entryDx=0;entryDy=0;entryPerimeter=0;" parent="1" source="_IOrh9b2by9tf-pV0UFM-4" target="_IOrh9b2by9tf-pV0UFM-4" edge="1">
          <mxGeometry relative="1" as="geometry" />
        </mxCell>
        <mxCell id="_IOrh9b2by9tf-pV0UFM-7" style="edgeStyle=orthogonalEdgeStyle;rounded=0;orthogonalLoop=1;jettySize=auto;html=1;exitX=0.5;exitY=1;exitDx=0;exitDy=0;" parent="1" source="_IOrh9b2by9tf-pV0UFM-4" target="_IOrh9b2by9tf-pV0UFM-4" edge="1">
          <mxGeometry relative="1" as="geometry" />
        </mxCell>
        <mxCell id="ZkSdNw1eY8WDO75L0njx-6" style="edgeStyle=orthogonalEdgeStyle;rounded=0;orthogonalLoop=1;jettySize=auto;html=1;exitX=0.5;exitY=1;exitDx=0;exitDy=0;" edge="1" parent="1" source="_IOrh9b2by9tf-pV0UFM-8">
          <mxGeometry relative="1" as="geometry">
            <mxPoint x="385" y="680" as="targetPoint" />
          </mxGeometry>
        </mxCell>
        <mxCell id="_IOrh9b2by9tf-pV0UFM-8" value="Output dailyRentCost" style="shape=parallelogram;perimeter=parallelogramPerimeter;whiteSpace=wrap;html=1;fixedSize=1;" parent="1" vertex="1">
          <mxGeometry x="305" y="550" width="160" height="110" as="geometry" />
        </mxCell>
        <mxCell id="_IOrh9b2by9tf-pV0UFM-9" value="Stop" style="ellipse;whiteSpace=wrap;html=1;" parent="1" vertex="1">
          <mxGeometry x="305" y="690" width="160" height="110" as="geometry" />
        </mxCell>
        <mxCell id="ZkSdNw1eY8WDO75L0njx-1" value="" style="endArrow=classic;html=1;rounded=0;" edge="1" parent="1">
          <mxGeometry width="50" height="50" relative="1" as="geometry">
            <mxPoint x="400" y="630" as="sourcePoint" />
            <mxPoint x="450" y="580" as="targetPoint" />
          </mxGeometry>
        </mxCell>
      </root>
    </mxGraphModel>
  </diagram>
</mxfile>
